<svg width="80" height="80" viewBox="0 0 80 80" fill="none" xmlns="http://www.w3.org/2000/svg">
<mask id="path-1-inside-1_22_77" fill="white">
<path d="M8.78937 46.7501C7.34375 46.5551 5.86187 45.7913 4.82187 44.7044C4.0675 43.9207 3.60312 43.1688 3.24937 42.1657C3.00312 41.465 2.98312 41.3032 2.98312 39.9907C2.98312 38.6769 3.00312 38.5132 3.24937 37.8125C4.49437 34.2575 8.345 32.3438 11.8775 33.5207C14.0162 34.2313 15.7469 36.1013 16.3331 38.3325C16.5481 39.1507 16.55 40.72 16.3381 41.5969C15.525 44.9469 12.2094 47.2088 8.78937 46.7501ZM11.05 42.1657C11.9481 40.3688 12.6831 38.8575 12.6831 38.8063C12.6831 38.7475 12.2387 38.7107 11.5481 38.7107H10.4125V36.6138C10.4125 35.4588 10.3812 34.5457 10.3437 34.5825C10.2025 34.7244 6.94375 41.1282 6.98 41.1963C6.99937 41.2357 7.52437 41.2669 8.14437 41.2669H9.275V43.3494C9.275 44.4944 9.30625 45.4319 9.34812 45.4319C9.3875 45.4319 10.1544 43.9625 11.05 42.1657ZM31.7775 45.9032C31.2819 45.7763 30.5638 45.3982 30.315 45.1319C29.685 44.4557 29.4825 42.9544 29.905 42.0825C30.2737 41.3157 31.1063 40.8057 32.3169 40.5982C32.9344 40.4907 34.1213 40.5226 34.7606 40.6644C35.0169 40.7207 35.0194 40.7132 35.0194 40.2613C35.0194 39.2944 34.6944 38.6525 34.0431 38.3132C33.7087 38.1394 33.5056 38.1107 32.7494 38.1225C32.2531 38.1325 31.6063 38.1982 31.3088 38.2688L30.7687 38.4007L30.7081 37.9638C30.5906 37.1313 30.5787 37.1657 31.0912 37.0263C31.3525 36.9557 32.08 36.875 32.7075 36.8457C33.6181 36.8044 33.96 36.8263 34.4044 36.9557C35.525 37.2825 36.1694 37.9807 36.4106 39.1332C36.4919 39.5238 36.5306 40.6519 36.5331 42.6975L36.5356 45.6932L35.8006 45.8057C34.8294 45.9544 32.2269 46.0182 31.7775 45.9032ZM34.58 44.7094L35.0194 44.6488V43.2938C35.0194 42.3538 34.9856 41.9188 34.9069 41.8726C34.8463 41.8338 34.365 41.7825 33.8356 41.76C32.6075 41.7038 31.9531 41.8751 31.5281 42.3582C31.2744 42.6463 31.2356 42.7663 31.2356 43.2157C31.2356 44.0625 31.4669 44.3675 32.3219 44.6363C32.7369 44.7675 33.8869 44.8051 34.58 44.7094ZM39.3406 45.8132C38.9819 45.7176 38.655 45.6032 38.6131 45.5594C38.5425 45.4857 38.7331 44.4313 38.8356 44.3282C38.86 44.3044 39.1506 44.3825 39.48 44.4969C40.2856 44.78 42.0925 44.8144 42.5637 44.5557C42.9687 44.3357 43.1594 44.0382 43.1594 43.635C43.1594 42.9319 42.6394 42.5144 40.84 41.7825C39.2163 41.1207 38.6987 40.5275 38.6987 39.3313C38.6987 38.1519 39.3213 37.3632 40.5369 36.9925C41.0962 36.8238 41.35 36.8019 42.2019 36.8457C43.3519 36.9044 44.2019 37.0775 44.2019 37.2557C44.2019 37.385 44.0037 38.3644 43.97 38.4032C43.9575 38.4182 43.6156 38.3425 43.2075 38.2375C42.3312 38.015 41.7456 37.9982 41.1281 38.1863C40.4594 38.3863 40.2244 38.6475 40.2244 39.1944C40.2244 39.9463 40.5275 40.1832 42.5075 40.9838C43.9575 41.5675 44.5094 42.1025 44.6681 43.0763C44.8975 44.48 44.2137 45.4763 42.7588 45.8638C42.0238 46.0594 40.1512 46.0326 39.3406 45.8132ZM48.4594 45.8544C47.8612 45.6688 47.3806 45.2344 47.0706 44.6019L46.8044 44.0601V34.5044L47.2294 34.4338C47.4746 34.395 47.7194 34.3533 47.9637 34.3088L48.2712 34.2557V37.0069H51.5844V38.2375H48.2625L48.2919 40.9125C48.3162 43.3938 48.3331 43.6132 48.5137 43.9551C48.6212 44.1626 48.8512 44.4019 49.0312 44.4994C49.4687 44.7338 50.4769 44.7338 51.1456 44.4969L51.6487 44.3219L51.7925 44.9269C51.9294 45.4957 51.9294 45.5369 51.7681 45.6226C51.0944 45.9838 49.2844 46.1107 48.4594 45.8544ZM22.0531 39.9419V34.075H29.1531V35.3982H23.6575L23.6844 37.2219L23.7087 39.0432L26.1475 39.0675L28.5837 39.0944V40.415H23.6625V45.8107H22.0537L22.0531 39.9419ZM52.5294 45.7619C52.5294 45.6544 54.27 40.9963 54.9169 39.375C55.3865 38.2073 55.8758 37.0476 56.3844 35.8963L57.195 34.075H57.9737C58.635 34.075 58.7625 34.0994 58.8062 34.2382C58.8331 34.3313 59.1725 35.1069 59.5606 35.9669C60.4075 37.8519 61.4162 40.3688 62.5606 43.4519C63.0294 44.7144 63.4156 45.7644 63.4156 45.7813C63.4156 45.8007 63.025 45.8063 62.5469 45.7913L61.6775 45.7619L61.15 44.2969L60.62 42.8294L57.925 42.8025L55.2269 42.7782L54.695 44.27L54.165 45.7619L53.3469 45.7913C52.8981 45.8057 52.5294 45.7938 52.5294 45.7619ZM60.1025 41.4307C60.1025 41.1257 58.0444 35.9669 57.9225 35.9669C57.7687 35.9669 55.7475 41.0325 55.7475 41.4163C55.7475 41.5288 56.1106 41.5501 57.925 41.5501C59.6169 41.5501 60.1025 41.5225 60.1025 41.4307ZM65.1194 40V34.1894L65.4275 34.1282C66.0912 33.9988 69.28 33.9532 69.8731 34.0675C71.2281 34.3213 72.2606 34.8732 72.7663 35.6082C73.66 36.9094 73.5131 39.1113 72.4631 40.1638C71.6506 40.9763 70.3712 41.3525 68.1712 41.4332L66.7287 41.4844V45.8107H65.1194V40ZM70.0537 39.8513C71.1844 39.4969 71.665 38.8475 71.665 37.6732C71.665 36.0544 70.5344 35.3075 68.0881 35.305C67.6662 35.305 67.185 35.33 67.0237 35.3638L66.7287 35.4225V40.1588L68.11 40.09C69.0187 40.0463 69.6875 39.9632 70.0537 39.8513ZM75.53 39.9413V34.075H77.1387V45.8107H75.53V39.9413Z"/>
</mask>
<path d="M8.78937 46.7501C7.34375 46.5551 5.86187 45.7913 4.82187 44.7044C4.0675 43.9207 3.60312 43.1688 3.24937 42.1657C3.00312 41.465 2.98312 41.3032 2.98312 39.9907C2.98312 38.6769 3.00312 38.5132 3.24937 37.8125C4.49437 34.2575 8.345 32.3438 11.8775 33.5207C14.0162 34.2313 15.7469 36.1013 16.3331 38.3325C16.5481 39.1507 16.55 40.72 16.3381 41.5969C15.525 44.9469 12.2094 47.2088 8.78937 46.7501ZM11.05 42.1657C11.9481 40.3688 12.6831 38.8575 12.6831 38.8063C12.6831 38.7475 12.2387 38.7107 11.5481 38.7107H10.4125V36.6138C10.4125 35.4588 10.3812 34.5457 10.3437 34.5825C10.2025 34.7244 6.94375 41.1282 6.98 41.1963C6.99937 41.2357 7.52437 41.2669 8.14437 41.2669H9.275V43.3494C9.275 44.4944 9.30625 45.4319 9.34812 45.4319C9.3875 45.4319 10.1544 43.9625 11.05 42.1657ZM31.7775 45.9032C31.2819 45.7763 30.5638 45.3982 30.315 45.1319C29.685 44.4557 29.4825 42.9544 29.905 42.0825C30.2737 41.3157 31.1063 40.8057 32.3169 40.5982C32.9344 40.4907 34.1213 40.5226 34.7606 40.6644C35.0169 40.7207 35.0194 40.7132 35.0194 40.2613C35.0194 39.2944 34.6944 38.6525 34.0431 38.3132C33.7087 38.1394 33.5056 38.1107 32.7494 38.1225C32.2531 38.1325 31.6063 38.1982 31.3088 38.2688L30.7687 38.4007L30.7081 37.9638C30.5906 37.1313 30.5787 37.1657 31.0912 37.0263C31.3525 36.9557 32.08 36.875 32.7075 36.8457C33.6181 36.8044 33.96 36.8263 34.4044 36.9557C35.525 37.2825 36.1694 37.9807 36.4106 39.1332C36.4919 39.5238 36.5306 40.6519 36.5331 42.6975L36.5356 45.6932L35.8006 45.8057C34.8294 45.9544 32.2269 46.0182 31.7775 45.9032ZM34.58 44.7094L35.0194 44.6488V43.2938C35.0194 42.3538 34.9856 41.9188 34.9069 41.8726C34.8463 41.8338 34.365 41.7825 33.8356 41.76C32.6075 41.7038 31.9531 41.8751 31.5281 42.3582C31.2744 42.6463 31.2356 42.7663 31.2356 43.2157C31.2356 44.0625 31.4669 44.3675 32.3219 44.6363C32.7369 44.7675 33.8869 44.8051 34.58 44.7094ZM39.3406 45.8132C38.9819 45.7176 38.655 45.6032 38.6131 45.5594C38.5425 45.4857 38.7331 44.4313 38.8356 44.3282C38.86 44.3044 39.1506 44.3825 39.48 44.4969C40.2856 44.78 42.0925 44.8144 42.5637 44.5557C42.9687 44.3357 43.1594 44.0382 43.1594 43.635C43.1594 42.9319 42.6394 42.5144 40.84 41.7825C39.2163 41.1207 38.6987 40.5275 38.6987 39.3313C38.6987 38.1519 39.3213 37.3632 40.5369 36.9925C41.0962 36.8238 41.35 36.8019 42.2019 36.8457C43.3519 36.9044 44.2019 37.0775 44.2019 37.2557C44.2019 37.385 44.0037 38.3644 43.97 38.4032C43.9575 38.4182 43.6156 38.3425 43.2075 38.2375C42.3312 38.015 41.7456 37.9982 41.1281 38.1863C40.4594 38.3863 40.2244 38.6475 40.2244 39.1944C40.2244 39.9463 40.5275 40.1832 42.5075 40.9838C43.9575 41.5675 44.5094 42.1025 44.6681 43.0763C44.8975 44.48 44.2137 45.4763 42.7588 45.8638C42.0238 46.0594 40.1512 46.0326 39.3406 45.8132ZM48.4594 45.8544C47.8612 45.6688 47.3806 45.2344 47.0706 44.6019L46.8044 44.0601V34.5044L47.2294 34.4338C47.4746 34.395 47.7194 34.3533 47.9637 34.3088L48.2712 34.2557V37.0069H51.5844V38.2375H48.2625L48.2919 40.9125C48.3162 43.3938 48.3331 43.6132 48.5137 43.9551C48.6212 44.1626 48.8512 44.4019 49.0312 44.4994C49.4687 44.7338 50.4769 44.7338 51.1456 44.4969L51.6487 44.3219L51.7925 44.9269C51.9294 45.4957 51.9294 45.5369 51.7681 45.6226C51.0944 45.9838 49.2844 46.1107 48.4594 45.8544ZM22.0531 39.9419V34.075H29.1531V35.3982H23.6575L23.6844 37.2219L23.7087 39.0432L26.1475 39.0675L28.5837 39.0944V40.415H23.6625V45.8107H22.0537L22.0531 39.9419ZM52.5294 45.7619C52.5294 45.6544 54.27 40.9963 54.9169 39.375C55.3865 38.2073 55.8758 37.0476 56.3844 35.8963L57.195 34.075H57.9737C58.635 34.075 58.7625 34.0994 58.8062 34.2382C58.8331 34.3313 59.1725 35.1069 59.5606 35.9669C60.4075 37.8519 61.4162 40.3688 62.5606 43.4519C63.0294 44.7144 63.4156 45.7644 63.4156 45.7813C63.4156 45.8007 63.025 45.8063 62.5469 45.7913L61.6775 45.7619L61.15 44.2969L60.62 42.8294L57.925 42.8025L55.2269 42.7782L54.695 44.27L54.165 45.7619L53.3469 45.7913C52.8981 45.8057 52.5294 45.7938 52.5294 45.7619ZM60.1025 41.4307C60.1025 41.1257 58.0444 35.9669 57.9225 35.9669C57.7687 35.9669 55.7475 41.0325 55.7475 41.4163C55.7475 41.5288 56.1106 41.5501 57.925 41.5501C59.6169 41.5501 60.1025 41.5225 60.1025 41.4307ZM65.1194 40V34.1894L65.4275 34.1282C66.0912 33.9988 69.28 33.9532 69.8731 34.0675C71.2281 34.3213 72.2606 34.8732 72.7663 35.6082C73.66 36.9094 73.5131 39.1113 72.4631 40.1638C71.6506 40.9763 70.3712 41.3525 68.1712 41.4332L66.7287 41.4844V45.8107H65.1194V40ZM70.0537 39.8513C71.1844 39.4969 71.665 38.8475 71.665 37.6732C71.665 36.0544 70.5344 35.3075 68.0881 35.305C67.6662 35.305 67.185 35.33 67.0237 35.3638L66.7287 35.4225V40.1588L68.11 40.09C69.0187 40.0463 69.6875 39.9632 70.0537 39.8513ZM75.53 39.9413V34.075H77.1387V45.8107H75.53V39.9413Z" fill="#1E1E1E" stroke="black" stroke-width="6" mask="url(#path-1-inside-1_22_77)"/>
</svg>
