<svg width="80" height="80" viewBox="0 0 80 80" fill="none" xmlns="http://www.w3.org/2000/svg">
<path d="M66.6667 33.76C66.6667 20.9866 66.6667 14.6033 62.76 10.6333C58.8533 6.66329 52.57 6.66663 40 6.66663H33.3333C20.7633 6.66663 14.4767 6.66663 10.5733 10.6333C6.66999 14.6 6.66666 20.9866 6.66666 33.76C6.66666 46.5333 6.66666 52.9166 10.5733 56.8866C12.14 58.4766 14.0867 59.43 16.6667 60" stroke="#1E1E1E" stroke-width="3" stroke-linecap="round" stroke-linejoin="round"/>
<path d="M73.3333 58.3333C73.3333 52.0833 73.3333 48.9599 71.7433 46.7666C71.2294 46.0592 70.6073 45.4372 69.9 44.9233C67.7067 43.3333 64.5833 43.3333 58.3333 43.3333H41.6667C35.4167 43.3333 32.2933 43.3333 30.1 44.9233C29.3926 45.4372 28.7706 46.0592 28.2567 46.7666C26.6667 48.9633 26.6667 52.0866 26.6667 58.3333C26.6667 64.5799 26.6667 67.7066 28.2567 69.8999C28.7716 70.6075 29.3948 71.2296 30.1033 71.7433C32.2933 73.3333 35.4167 73.3333 41.6667 73.3333H58.3333C64.5833 73.3333 67.7067 73.3333 69.9 71.7433C70.6073 71.2293 71.2294 70.6073 71.7433 69.8999C73.3333 67.7066 73.3333 64.5833 73.3333 58.3333Z" stroke="#1E1E1E" stroke-width="3" stroke-linecap="round" stroke-linejoin="round"/>
<path d="M55 53.3333L58.0666 55.9767C59.3566 57.0867 60 57.6433 60 58.3333C60 59.0233 59.3566 59.58 58.0666 60.69L55 63.3333M45 53.3333L41.9333 55.9767C40.6433 57.0867 40 57.6433 40 58.3333C40 59.0233 40.6433 59.58 41.9333 60.69L45 63.3333M8.33331 20H65" stroke="#1E1E1E" stroke-width="3" stroke-linecap="round" stroke-linejoin="round"/>
</svg>
